<svg xmlns="http://www.w3.org/2000/svg" viewBox="0 0 8000 8000">
  <ellipse cx="5406.7" cy="1438.3" fill="none" stroke="#fff" stroke-opacity=".1" stroke-width=".5" rx="643.6" ry="653.4" transform="matrix(6.21245 -.00002 -.00002 6.11918 -29589 -4801)"/>
  <ellipse cx="5406.7" cy="1438.3" fill="#fff" rx="562.5" ry="571.1" transform="matrix(6.21245 -.00002 -.00002 6.11918 -29589 -4801)"/>
  <path fill="#add067" fill-opacity=".8" d="M3186 7597a3537 3429-30 0 1-1571-682c-297-268-422-690-596-1051-270-538-664-1061-719-1662-41-447 103-908 289-1317a4550 4550 0 0 1 1101-1504c592-502 1297-986 2070-1078 463-50 911 190 1348 348 365 137 764 249 1058 511 541 477 905 1151 1178 1821 216 540 428 1136 345 1711-69 460-380 857-656 1228-260 336-584 619-927 879-449 332-922 696-1462 835-475 117-986 67-1458-39zm2296-1375c100-276 644-330 818-646 302-312 713-663 891-1048 50-355-516 629-440 360-392 528-990 853-1609 1062a1538 1538 0 0 1-1007 118c-130 131-686-143-686-143s444 577 656 293c385 60 872 245 1297 34l43-10zm-1858 499c-897-444-398 183 0 0zm2189-1330c98-113-555 47 64-215-644-207-624-30-866-107-527-42-743-186-743-186s-816 664 591 403c320-60 504 229 767 180 70 2 140-22 187-75zM3390 6467c-908-44-80 184 0 0zm-376-299c-153-219-642 422 0 0zm-898 38c-166-218 73 249 0 0zm792-209c148-315-1089-468-1089-468s1010 538 1089 468zm-1347-971c-5 324 119 451 144 867-20 232 816 845 816 845l-652-874zm4814-309c-285-2353-997 72 0 0zm379-1151c-616-1651-216-118 0 0zM2257 5432c-129-251-80 171 0 0zm3925-2656c-177-634-144 870 0 0zm-784-492c-177-58-283 2212-33 782 455 651 28-753 33-782zM3136 4693c38-1449-208 281 0 0zm-321-1435c-172 167-451 1057-409 1671 45-172 213-270 244-86 146-522 137-1100 165-1585zm-588 1339c-111-409-241 117 0 0zm3017-1894c-100-147 60 188 0 0zm820 533c-755-2111-78 264 0 0zm-1058-538c155-111 159-449-49-309 39-222-242-384-224-515 189-36 583 260 342-72-228-332-642-510-1024-604 212 86 477 244 633 354 1350 963-380 52-474 593-56 318-898 320-898 320s1371-135 1558 173c25 33 108 149 136 60zM1804 4109c178-566-212 451 0 0zm575-1479c274-209 64-330-99-81-102 143-12 221 99 81zm1844-1177c-95-149-221 154-13 14zm-534 559c-1527-498-466 428 0 0zm-2247 725c144-219-177 210 0 0zm3173-430c580 255-892-756 0 0zm-3018 205c113-136 495-350 120-173-51-6-302 386-120 173zM3958 873c-703 107 1555 845 0 0zm-617 329c-79-286-947 575-624 366 21-12 613-347 624-366z" paint-order="markers fill stroke"/>
  <path fill="#8cd669" fill-opacity=".7" d="M3155 7689a3543 3435-30 0 1-1561-701c-300-273-411-696-585-1057-265-540-629-1073-703-1670-52-455 40-934 216-1351 242-575 650-1085 1119-1494C2267 875 2990 307 3814 209c458-61 911 189 1341 358 429 168 897 317 1227 647 501 505 748 1230 980 1902 189 554 417 1141 326 1714-69 460-380 857-666 1220a4475 4475 0 0 1-933 869c-458 329-934 689-1476 822-473 110-987 54-1458-52zm1966-874c-128-18-145 39 0 0zm-210 34c-281-9-880-287-975-27 282 202 658-9 975 27zm-42-65c-317-62-56 37 76 26zm300-123c-73-20-221 13-65 9zm445-288c-437 137 481-248-7-77-389-17 371-182 461-297 173-128 523-439 424-493 213-296 464-573 592-911 85-201 91-305-55-64-218 286-285 597-597 774-369 301-774 574-1232 736-400 244-889 107-1276-71-259-262-525-499-616-872-75-87-335-516-179-433 13 127 191 392 69 103 178 111-245-416-133-578-186 282-4 720 150 978 99 261 225 596 393 766-226-85-384-429-582-462 214 279 539 472 800 725 124 127 129 379 351 151 371 47 726 243 1112 101 41 24 482-68 325-76zm-1279-231c-235-13-190-71 0 0zm-347 48c-320-81-122-149 0 0zm74-94c-328-70 123-67 19-3zm-902-1374c-17-44 33 49 0 0zm769 2177c-294-148-118 11 85 28zm2854-1597c-63-27-124 181 0 0zM3994 6623c-169-70-786-304-312-92 71 28 562 184 312 92zm-380 166c-166-473-317 320 0 0zm2787-1555c-170 5-395 127-131-63 142-312 329-655 401-996-94 172-558 860-474 721 155-58 485-559 397-491-153 291-247 691-565 857-292 112-231-82-23-182-147 86-444 214-127-5 455-334 761-842 893-1377-236-308-235 510-373 665-204 326-573 768-929 787 102-69 623-446 272-201-228 230-654 362-742 20-154-3-455 207-524 245-19 272 166 332 409 348 344 188-71 112-210 174 263 38 576-85 920-151 254-4 295-261 481-275-282 234 130 24 234-26l64-35zm245-1219c60-248 96-207 0 0zm-75-101c34-206 98-227 5-3-5 17-12 54-5 3zm129 1030c176-223 326-546 292-762-34 294-327 775-384 886zM3375 6577c-428-331 147 181 0 0zm2689-1569c-46 5-7 38 0 0zm74-67c-40 2-4 29 0 0zM3736 6273c-90-179-275 156 0 0zm-460 56c-312-206-593-470-706-844-197-315 230 539 78 373 117 152 469 523 688 532zm3442-1951c89-142 278-534 143-554-47 233-206 514-221 703l42-76zM4584 5605c-92-105-414-587-212-200 140 131 3 185 70 296 69 37 151-28 142-96zm-164 55c-46-123 114 45 0 0zm-1912 858c-8 38 77 79 0 0zm241-91c-33 5 63 53 0 0zm3586-2042c150-82 176-633 22-267-74 94-247 604-22 267zm-21-103c41-270 211-222 57 3-49 100-117 103-57-3zM3004 6262c-126-247-224 135 0 0zm2297-1349c-99-94-208 254 0 0zM2500 6428c-10 33 75 74 0 0zm-115 29c-105-104 105 144 0 0zm3030-1640c-115 30-21 39 0 0zm53-42c-45 5-7 38 0 0zm197-147c166-77 446-504 143-158-32 31-353 332-143 158zM2215 6489c-179-191-313-708-508-710-152 345 191 762 520 744zm3433-1932c193-179-406 247-90-38 179-218 46-93-1-40 73-134 312-445 291-547-133 367-432 644-686 929 177-69 351-170 486-304zM2431 6325c-13 27 55 38 0 0zm149-121c-11 32 63 53 0 0zm1671-895c-140-118-310 14-51 8zm-32 4c-66-31 86 7 0 0zm-1887 918c-252-426-265-936-358-1401-61 154-63 483-105 111 1-202 16-418-29-79-38 377 283 665 307 1041-23 72 216 526 185 328zm2847-1493-19-10zm1112-651c242-179 25-798 309-732 54-170-13-663-54-714 74 214-62 295-80 43-30-373-246-684-529-913-53 29 257 410 320 591 246 557 88 1199-13 1777l11 8zM2183 6326c-11 32 68 63 0 0zm135-248c59 135 103 165 0 0zm1638-689c-130-36-576-451-292-156 85 54 171 188 292 156zm101-55c-155-83-589-451-229-117 55 24 166 178 229 117zm1902-1107c-100-20-58 186 0 0zM2636 6066c-127-172-116-661-175-669 47 202 38 415-164 424-56 192 159 437 339 245zm2847-1647c221-295-244 199-53 55zm730-592c-28-38-201 445-31 71zm-833 580c101-81 346-382 280-440-1 215-458 557-372 538zm-445 148c323-336-241 219-423 190-213 116-676-89-682-126 295 303 808 192 1105-64zM2244 5917c4 45 80 84 0 0zm4502-2560c-78-119 6 265 0 0zM2210 5828c-10 32 63 53 0 0zm2587-1426c125-88 359-664 301-210 141-70 206-233 60-106-21-345-119-130-191 69-75 155-495 438-447 411 96-38 192-91 277-164zm1110-643c45-172-56 178 0 0zM2095 5857c-53 56 52 59 0 0zm3767-2168c114-249 47-884-131-867 233 289 102 622 38 938 58 170 72-33 93-71zM3473 5021c-32 4 61 48 0 0zm-640 207c-11 33 68 64 0 0zm-686 292c-114-313 82 318 0 0zm773-359c370-275-249-53-15 48zm-673 325c-184-161 9 210 0 0zm1233-696c-13 27 54 37 0 0zm368-341c-200-127 171 202 0 0zm2137-1249c6-359-48 308-3 22zM3322 4473c79-238-50-348-116-407 74-207 70-266 10-32-93 84 25 698 106 439zm-45-237c31-84 39 86 0 0zm949-442c453-18-305-525-250-361 225 46 496 254 163 341-101 323 57 398 87 20zm742-276c-60-175-69-600-149-583 32 124 203 695 147 591zm1240-633c-192-124-2 202 0 0zm-832 378c42-600-173 396 0 0zM1413 5363c-16-374 49 422 0 0zm3144-1622c-107-364-101-32 0 0zm1369-891c-23-491-405-840-674-1210-15 203-318-229-484-179-363-58-509-468-890-483-288-98-507 149-145 167 189 17 387 178 59 108-266-70-817-66-914 61 485-36 1016-76 1442 189 105 117 306 450-11 260-191 30-784-96-341 45 130 164 296 536 477 499-143-110-309-315-43-91-99-80-129-252 61-80 253 137 352 728 593 663 77-370 288 340 282-66-2-273-227-319-335-428-125-435 640-5 438 286-194-130 9 477-23 86 280 210 95-387-53-481-89-140-370-544-310-523 396 362 742 798 874 1323 7-51 1-101-3-146zm-654-175c-183-121-56-372 0 0zm-86-6c-80-225 89 112 0 0zm-191-212c5-184 71 169 0 0zm-722-607c-188-105 184 21 0 0zm280 1820c-32 4 55 50 0 0zm-57-130c4 58 103 138 0 0zm1202-640c-258-235 25 174 0 0zm-1324 605c-67-238-680-247-620-125 191-131 719 333 620 125zm-125-39c-126-92-658-118-232-149 32-17 447 214 232 149zm-1350 901c-115 56 54 139 0 0zm1334-765c-129-124 153 219 0 0zm604-314c-222-309 81 277 0 0zM2302 4732c-24-108 126-290 178-104-31-211 297-141 270-166 166-191 255-971-131-586-315 452 163-350 27-270-293 314-249 766-390 1144-23 60 67 85 46-18zm3659-2062c-13 27 54 38 0 0zM3480 4025c176-250 51 80-13 27l11-19zm-1244 649c-87-442-293 72 0 0zm805-632c28-190 431-569 345-536-188 162-407 550-401 701 20-52 30-111 56-165zm2832-1700c-359-549 224 516 0 0zm-33-22c-9-56 45 70 0 0zM4277 3351c-192-278-698-205-746-11-7 24 404-186 564-45zm427-206c-32 4 61 48 0 0zM2075 4440c-5-366-69-50-38 134 29 4 27-102 38-134zm-24 33c19-105 4 85 0 0zm2620-1364c-32 4 60 48 0 0zM2259 4346c95-487-108 287-20 105l8-38zm1144-682c128-96 305-253 63-74-37 7-192 232-63 74zm-1397 572c77-190 56-406-13-87-68 218-132 521 13 87zm16-136c45-159-25 134 0 0zm2676-1287c-135-517-687-746-1177-822 375-251-744-85-217-56 386 178 824 310 1129 606-261-227 98 296 225 327l24-19zm-115-58c-191-111 93-97 16 4zm-111-141c-9-42 39 46 0 0zm-251-260c-101-98 142 58 0 0zM1423 4411c37-315-85 302-17 70zm700-266c-23-54-23 87 0 0zm-325 90c110-154 50-329-18-71-60 80-43 278 18 71zm353-152c8-125-37 161 0 0zm1686-970c-168-43-415 139-110 26 11-19 227-2 110-26zm114-95c-242-130-848 246-794 217 194-139 756-250 794-217zm-1473 686c197-134-65-260-95-49 213-142-139 344 27 26-139 189-52 350 31 83zm3398-1880c-157-317 78 260 0 0zM2192 3967c11-107-33 132 0 0zm2093-1252c-65-145-434-266-123-87 30 17 206 304 123 87zM2204 3887c40-143-122 234 0 0zm79-84c69-205-154 278 0 0zm1475-862c-187 75-584-185-190-185-163-85-514 199-141 198 80-4 327 30 331-13zM1436 4217c169-327-203-17-21 65l17-9zm2807-1733c-169-96-380-371-575-258 274 72 408 268 655 368l-39-59zm1313-868c-68-164-268-176-49-40 94 136 244 323 49 40zM1556 4018c105-151 359-652 336-592-191 131-431 556-359 651zm673-353c-83 39-48 154 0 0zm999-516c50-329-839 134-497 243 177-42 351-130 497-243zm818-518c-181-143-284-40-21-2 11 8 217 83 21 2zm-122-48c-131-50 157 36 0 0zm-48 154c-150-73-56 77 0 0zm-1631 906c134-160-13-100 5 11zm143-144c129-158 128-312-2-67-58 72-106 239 2 67zm-491 280c-83-204-125 128 0 0zm1552-911-65-18zm260-222c-212-72-402 112-80 44 46 8 221 0 80-44zm-1442 784c28-89-134 147 0 0zm85-100c-104 63-55 90 0 0zm-268 92c-92 23-16 163 0 0zm488-272c135-120 550-554 179-218-21 12-375 405-179 218zm1156-648c-148 7 106 30 0 0zm-193 78c-145 12-472 123-139 49 13-14 239-30 139-49zm-1276 566c-133 72-108 132 16 4zm-934 393c140-136 307-415 62-127-71 72-206 347-62 127zm-60-47c-29-92-44 124 0 0zm0-101c20-78-83 139 0 0zm124-168c119-138 184-375 44-98-58 85-194 307-44 98zm1034-528c202-137 133-341-62-128-133 113-160 369 62 128zm-1199 530c188-330 375-686 714-890-400 130-678 509-808 895-52 249-28 229 94-5zm3038-1690c-202-119-174 215 0 0zm-516 260c-377-71-1009 12-1226 83 334-34 670-63 1010-73 60-6 187 25 216-10zm-683 398c-174-54-168 225 0 0zm-1089 591c-81-150-437 177-102 16 29 4 87 33 102-16zm1492-1072c-127-45-638 58-266 17 21-24 364 24 266-17zm-697-77c48-140-227-252 65-237 10-160-560 191-180 306 51 6 99-20 115-69zm810-481c-242-90-285 61 0 0z"/>
  <path fill="#a7cb57" fill-opacity=".8" d="M3152 7686a3543 3435-30 0 1-1558-696c-300-273-411-695-585-1056-268-546-629-1074-703-1670-52-455 41-935 216-1352 242-574 650-1084 1119-1493C2265 872 2990 310 3811 206c461-56 914 194 1344 363 429 169 897 317 1224 642 504 511 748 1230 983 1907 187 550 417 1142 326 1714-69 460-382 852-666 1221-261 336-593 617-933 869-458 329-933 688-1479 817-470 114-984 58-1458-53zm2624-883c349-249 587-627 834-975 262-384 610-762 680-1222 90-599-170-1208-374-1775a3037 3037 0 0 0-406-778c-258-350-554-692-936-900a3124 3029-30 0 0-1297-328c-435-25-896-10-1298 155-492 201-905 586-1256 985-378 413-733 881-884 1419-108 401-45 836 17 1245 65 414 154 835 366 1189 216 372 543 684 901 925a3494 3388-30 0 0 2480 523c417-72 830-216 1173-463zm-618-6c-153 50-768-105-318-1 198 87-552-62-458-53-208-54-716-47-331 180-159-28-519-181-164-11-219 286-611-31-926-115-359-12-399-380-708-440-322-59-314-888-663-524-264-387-50-885-137-1314-86-363 222-637 366-970 303-360-272 161-271 341-39 337-215 191-191-84-324-51 444-777 46-400-290 332-52-200 62-309 205-386-251 405-92 23 53-310 563-621 546-806-450 63 261-397 369-529 57-125 306-381 312-89 358 87-31-339 253-312 388-164 832-97 1225 5 207-39 538 586 163 340-146 87-770-44-353 25 157 149 475 647 554 564-110-88-325-333-62-114 116 98-199-254 37-60 292 156 306 578 587 714 188-9 98-342 193-52 299 260 89-524-143-405-322-415 404-300 392 35 94 238-185 67-75 322 66 173-1-207 152 12 151-411-352-727-486-1090a2771 2687-30 0 1 892 1305c40-565-403-975-719-1380-209-221 219 277-71 46-329-251 383-262 426 10 292 398-252-326 97-127 341 298 568 717 693 1153 74 469-27 960-104 1431 247-222 130-553 252-787 143 150 103-231 200 38 212 328 130 687-38 1027-75 450 275-793 319-214-13 269-415 944-392 911 115-184 246-261 59-32-349 364-764 670-1235 845-350 184-768 344-1152 183-363-84-636-358-818-668a2034 2034 0 0 1-203-607c78 118-150-341-161-463-100-428-156 313-18 452 165 253-221 154-200 397 488-452 366 485 679 617 158 330-382-349-530-355 145 243 448 407 668 609 239 111 194 552 534 286 361 220 818 146 1228 98 310-1-190 378-285 342zm38-147c-219-9-164 55 0 0zm-884 64c-101-59-32 18 0 0zm-193-49c-157-36-699-284-614-203 199 86 403 156 614 203zm-504 140c-90-448-370 274 0 0zm2786-1568c-178 3-405 146-131-63 142-312 330-655 401-996l-456 704c158-79 356-596 372-464-175 290-238 787-631 839-224 8 204-299-64-106-413 171 185-181 268-320 299-317 512-714 609-1136-233-302-232 516-370 671-206 320-564 769-931 781 171-80 654-490 252-184-222 201-637 353-712 11-253 4-729 121-502 401-33 245 639 108 466 337-117-51-480 59-137 27 226-16 700-59 997-213 181-125 398-196 569-289zm-466 186c47-53 9 29 0 0zm50-61c198-336 1 168 0 0zm658-1350c60-247 99-201 0 0zm-72-95c31-211 98-228 6-3-5 16-13 54-6 3zm-114 1309c-44-29 1 53 0 0zm53-42c-49-27-4 56 0 0zM3345 6549c-264-219-83 38 85 81-25-34-63-53-85-81zm1482-799c-44-30-21 38 0 0zm1264-767c-86 46-45 84 0 0zm45-31c7-64-65 109 0 0zM3725 6282c-79-185-221 127 0 0zm-364 131c-202-233-533-335-666-631-102-99-285-617-120-223 102 139 40 508-58 199 51-148-118-640-54-239 82 190-38 262-172 308-40 143 139 575 68 278 172 88 495-195 312-163 281 123 460 441 696 481l8 2zm1220-811c-109-61-287-467-285-348 68 164 195 297 103 420 58 83 189 31 182-72zm-141 84c-145-63 73-94 0 0zm-838 368c-92-31 91 78 0 0zm-842 384c-92-118 50 106 0 0zm3575-2051c150-81 176-632 19-271-71 98-250 611-19 271zm-24-107c44-265 215-217 60 7-52 96-117 104-60-7zM3015 6245c-220-202-128 197 0 0zm2292-1332c-166-51-144 232 0 0zM2682 6332c-113-133 73 135 0 0zm2733-1512c-115 29-20 38 0 0zm53-42c-56-3-9 59 0 0zm165-117c159-39 500-546 204-224-29 36-366 346-204 224zm-1315 735c-44-29-21 39 0 0zm1322-825c345-295-395 254-74-61 168-212 46-92-62 40 122-146 375-559 344-616-95 347-528 697-643 906 167-50 307-160 435-269zM2447 6319c-94-123 90 193 0 0zm177-56c-44-30 12 47 0 0zm-39-46c-58-69 48 102 0 0zm1663-910c-184-175-319 86-470-181-271-181 296 369 262 166 63 40 144 50 208 15zm-200-39c-7-50 49 27 0 0zm-1719 961c-249-422-267-928-346-1394-80 56-47 501-110 167 1-176-5-507-27-140-35 408 281 699 319 1114-31 97 234 497 164 253zm2858-1486c-130-50 44 56 0 0zm-1256 642c-155-83-581-449-245-122 55 25 215 206 245 122zm2033-1185c-131 51-45 185 0 0zm-481 221c221-294-244 200-56 51zm645-391c70-138 115-324 9-85-26 28-103 257-9 85zm-748 380c193-51 374-713 213-283-40 142-635 640-213 283zm-498 190c149-94 259-288 47-79-265 366-1002 243-1105 91 265 298 766 227 1058-12zm584-337c-38-33-4 56 0 0zm776-456c4-69-30 111 0 0zM2242 5901c4 98 72 95 0 0zm4019-2251c-54 2 17 57 0 0zM2095 5873c-65-31 77 193 0 0zm129-43c-48-88 35 142 0 0zm2573-1425c122-93 359-665 298-216 110-52 226-183 65-122-101-481-224 403-529 415-379 192-68 104 166-77zm1128-673c-42 49-53 156 0 0zm-63-40c120-239 44-902-130-855 281 304-3 673 71 988 51-21 30-97 59-133zm-1479 905c-39-33-21 38 0 0zm-901 429c-58-43 20 63 0 0zm-649 205c-11 32 68 63 0 0zm-657 383c-99-93 244-98 3-148-166-179-9 239-3 148zm1100-637c-52-6 73 34 0 0zm774-408c-101-59-37 21 0 0zm1131-668c-1-66-27 116 0 0zm-1701 891c-13 27 54 38 0 0zm-657 384c-38-33-4 56 0 0zm1077-679c-76-180-192-23 0 0zm2083-1246c38-249-58-183-29 36-6 104 63 26 29-36zm-1543 852c-38-33-4 56 0 0zM2098 5355c-33-36 1 53 0 0zm1224-880c76-255-53-340-116-406 64-175 114-350 9-72-136 81 66 709 107 478zm-45-237c28-88 37 81 0 0zm949-442c439-44-293-504-304-384 226-29 500 338 270 309-178 16-78 545 23 209-3-45 7-91 11-134zm760-191c-41-166-164-904-184-725 61 242 77 501 184 725zm1222-691c-55-205-129 157 0 0zm-830 431c222-201-163-441-126-92-5 56 71 182 126 92zm-821 399c-22-182-175-234-46-22-3 8 56 91 46 22zm-7-77c-38 7 58 56 0 0zm-23-94c-120-170 76 193 0 0zm1176-673c-179-218-73 107 3 18zm-1329 608c-69-244-679-248-623-131 256-25 564 163 643 167zm-133-42c-121-95-655-113-224-146 32-17 447 213 224 146zm-1351 989c78-162-80-70 0 0zm1368-817c-152-205 40 126 0 0zm593-309c-115-239 95 9-2 9zM2286 4757c-6-279 203-84 295-234 370 7 465-648 232-810-269 193-151-113-140-119-327 265-288 848-415 1124-24 7 3 133 28 39zm1158-643c108-146 117-359 15-88 8-11-54 130-15 88zm2539-1413c-48-115-12 67 0 0zm-1551 735c-43 10 93 70 0 0zM2239 4682c-90-447-284 127 0 0zm733-432c62-282 246-529 430-750-201 163-437 546-430 750zm1441-850c-79-132-84 25 0 0zm1491-998c-43-232-246-262-66-32 32 84 161 208 66 32zm-64-80c-12-60 42 65 0 0zM4332 3404c-167-346-829-254-800-62 251-110 586-117 800 62zm-734-118c47-53 9 29 0 0zm1114-136c-43-30 21 63 0 0zM2057 4526c21-179-27-408-26-100-12 54 4 313 26 100zm-6-51c19-104 4 85 0 0zm2285-1140c-44-30-21 38 0 0zM2249 4395c55-231 11-274-22-2-32 132 24 95 22 2zm2430-1281c-43-30 18 58 0 0zm-1297 578c130-118 364-298 82-105-16 9-209 228-82 105zm-1382 549c91-176 69-460-7-103-56 165-117 486-3 136l11-19zm19-131c33-131-14 102 0 0zm2679-1294c-129-520-734-641-1177-822-66-32-788-89-204-44 373 153 773 291 1075 556-137-113 123 329 266 365l24-20zm-115-59c-191-110 93-97 16 5zm-111-141c-11-47 39 46 0 0zm-36-40c5-56 39 32 0 0zm-223-221c-116-37 134 55 9 2zM2311 4113c-36-28-2 61 0 0zm1184-684c-67 3-2 35 0 0zm2354-1346c-18 30 55 37 0 0zM2117 4124c-54 16 45 97 0 0zm-336 197c205-106 49-510-47-163-21 38-45 286 47 163zm370-235c-10-122-26 155 0 0zm3793-2108c-38-33-4 56 0 0zM3864 3115c-177-72-439 145-118 24 16-22 119 15 118-24zm109-93c-194-129-712 139-765 194 229-124 503-206 765-194zm-1495 685c263-230-235-154-34-76 102-55-189 365-34 52-118 152-99 430 68 24zm3364-1956c-168-324 202 387 0 0zM2197 3967c-4-98-27 128 0 0zm2088-1249c-56-143-439-264-126-92 11 7 206 290 126 92zM2201 3884c41-129-106 212 0 0zm33 23c233-375-115 69 0 0zm1968-1164c-38-33-18 43 0 0zm-441 193c-201 62-581-167-179-191-188-52-528 200-155 212 86-7 308 33 334-21zm482-450c-175-106-388-372-586-265 278 91 413 252 672 399l-39-72zM2198 3725c134-160-99 47 0 0zm1030-573c50-329-839 134-497 243 177-43 351-130 497-243zm815-524c-129-137-308-33-46-8 66 44 191 57 46 8zm-122-47c-128-45 160 40 0 0zm-45 159c-161-67-61 66 0 0zm-1631 906c150-169 26-169 0 0zm43-23c-42-38-13 53 0 0zm58-46c98-113 223-443 40-155-8 24-135 247-40 155zm-463 178c-175-92-3 149 0 0zm1583-866c-116-112-65 21 0 0zm-1109 582c-38-33-4 56 0 0zm1390-803c-134-121-505 87-145 26 13-14 203 17 145-26zM1741 3799c-39-33-5 56 0 0zm500-352c133-99-94 44 0 0zm82-65c102-156-95 79 0 0zm-275 129c92-123-31-70 0 0zm322-208c-59 5 66 45 0 0zm-174 74c-53 29-14 88 0 0zm201-102c-60 5 65 45 0 0zm178-130c140-124 521-518 155-199-34 26-327 379-155 199zm1150-646c-191 4 117 51 0 0zm-190 84c-202 9-472 135-115 42-22-2 226-29 115-42zm-1252 559c-161 21-102 169 0 0zm739-422c-43-30-18 44 0 0zm-1420 491c-39-33-4 56 0 0zm818-505c187-102 149-377-41-153-149 82-181 394 41 153zm1839-1174c-246-135-133 227 0 0zm-1209 677c-16-119-239 197-5 3zm696-412c-376-57-993-10-1218 86 401-51 800-80 1202-77zm-1765 939c-176-31-463 205-131 78 54-2 171 21 131-78zm-396 149c-46 4-11 32 0 0zm1984-1159c-68-37-18 43 0 0zm-67-10c-139-66-771 70-300 21zm2002 4699c-102-86 386-116 0 0zm95-132c-232 19 271-73 0 0zm-1663 682c-33-49 66 32 0 0zm399-820c-248 0-61-88 0 0zm-276-51c-325-65 126-62 22 1zm2866-1625c18-43 44 30 0 0zm29-22c-40-240 197-174 0 0zM3847 6135c-47-61 73 21 0 0zm-623-1177c-188-106-137-496-38-120 4 31 83 89 38 120zm-64-233c-17-45 33 49 0 0zm3360-1873c-57-170-114-556-9-170 10 55 22 116 9 170zM3068 4593c7-77 15 53 0 0zm2204-1915c-183-122-56-372 0 0zm-86-7c-80-224 86 108 0 0zm-710-1338c-316-176 315 84 0 0zm-616-67c-214-38-687-56-338-125 102-42 751 149 338 125zm-1011 86c-186-25 188-35 0 0zm-83 12c45-58 6 24 0 0zm-153 50c-33-36 127 5 0 0z"/>
  <path fill="#5bac4d" fill-opacity=".7" d="M3152 7686a3543 3435-30 0 1-1558-696c-300-273-411-695-585-1056-268-546-629-1074-703-1670-52-455 41-935 216-1352 242-574 650-1084 1119-1493C2265 872 2990 310 3811 206c461-56 914 194 1344 363 429 169 897 317 1224 642 504 511 748 1230 983 1907 187 550 417 1142 326 1714-69 460-382 852-666 1221-261 336-593 617-933 869-458 329-933 688-1479 817-470 114-984 58-1458-53zm2624-883c349-249 587-627 834-975 262-384 610-762 680-1222 90-599-170-1208-374-1775a3037 3037 0 0 0-406-778c-258-350-554-692-936-900a3124 3029-30 0 0-1297-328c-435-25-896-10-1298 155-492 201-905 586-1256 985-378 413-733 881-884 1419-108 401-45 836 17 1245 65 414 154 835 366 1189 216 372 543 684 901 925a3494 3388-30 0 0 2480 523c417-72 830-216 1173-463zm-618-6c-472-4-954-65-1387-265-344-75-634-279-888-517-232-162-230-606-461-688 6 164 155 505-96 461-8 420-285-194-71-310-319-155-205-660-203-963 33-206 171-770 312-726-101 236-116 693-149 812-220-216-88 142 52 159-19 105 150-81 214-129 161-135 479-160 427-474 83-192 15-611-269-370-11-403 492-522 823-675 165-103 839-47 321-148-194-1-606-200-163-213 156-4 378 23 116-90-395-208-802 101-1116 325-154 124-572 680-204 312 251-150-424 545-170 388 297-229-190 364-193 500 36-214 2-330-60-48-95 400-297 920 1 1254 71 323 235 703 284 985-348-106-335-850-705-589-217-311-66-722-106-1076-68-331 10-723 298-919 35 256 381-355 407-396-280 286 338-539-27-153-348 136-589 649-753 792-38-262-191-379 44-634 149-236 578-489 544-732-263 102-600 399-666 583 111-369 472-686 653-938-188 35-336 68-127-133 210-161 571-592 693-584 207 243 279-84 204-185 442-166 937-120 1371-7 219 9 503 572 99 336-451-4-918-112-1357 73-125 48-534 122-171 53 306-73 538 76 823 142 120 43 275 113 150 227 214 12 273 134 279 298 206 49-504-102-96 39 479 95 790 503 1069 854 76 127 102 380 67 98-76-307-56-654-296-892-127-133-293-465-310-523 366 103 335 798 732 702 30-405 110 242 295 21 161-174 418 263 418 135 158 344-75 692-166 1023-73 261-620 551-400 780-220 295-657 317-976 417 44 70-86 33 61 101-407 26-717-201-894-567-132-244-47-585-213-676 68-359 468-757 855-578 399 111-301 619 237 682 338-117 306-622 41-793 223 374-195-169-369-209-99-134-649 64-299 21-164 29-121 160-158 194 312-62-365 205-357 375-308 362-202 814-91 1210-459-6-134 595 125 743 259 248 626 364 725 726 343-93 682 126 1035 101 214-89 846-110 414 191-63 48-138 76-222 87zm46-145c-195-28-204 70 0 0zm-1479-370c-79-185-221 127 0 0zm-123-228c-92-31 91 78 0 0zm1376-1532c234-168 284-497 184-604-21 139-61-215-131 51-106 380-491 689-900 623-175-18-482-355-299 22 201 307 647 225 933 63 74-40 149-94 213-155zM2095 5873c-78-132 81 265 0 0zm1316-1386c-56-117 64 194 0 0zm1967-1142c222-201-163-441-126-92-5 56 71 182 126 92zm-1861 635c72-340-219 502-26 55zm-627 475c78-162-80-70 0 0zm870-486c-54 3-10 59 0 0zm-1979 352c205-106 49-510-47-163-21 38-45 286 47 163zm2018-1251c-60-21 9 55 0 0zm406-322c-84-41 55 64 0 0zm-1785-42c187-102 149-377-41-153-149 82-181 394 41 153zm1839-1174c-246-135-133 227 0 0zm-1209 677c-16-119-239 197-5 3zm2549 4074c-232 19 271-73 0 0zm-1663 682c-33-49 66 32 0 0zm-182 59c-378 17-715-235-1070-317-151-126-389-580-263-615 174 80 468 584 217 184-122-263 86-416 255-166 78 92 533 448 264 333 204 84 320 222 299 401 135-6 392-93 404 109-188 35 2 93-106 71zm-739-779c-220-202-128 197 0 0zm2759-493c-456 154-912 536-1410 357-384-46-659-313-875-597-94-211-319-679-192-674 224 133 343 672 731 521 273-121 444 208 425 339 414 178 871-64 1285-115 234-207 563-211 786-413 116-130 355-428 132-112-253 272-567 496-882 694zm161-329c47-53 9 29 0 0zm50-61c198-336 1 168 0 0zm17-96c-288-98 276-385 370-503-31 185-174 457-370 503zm951-873c70-279 85 68-5 30l8-24zM3847 6135c-47-61 73 21 0 0zm1476-949c-499 23 66-351 231-468 360-202 541-569 685-929 86-174 26-323-17-45a1511 1511 0 0 1-711 857c181-253 400-640 420-1000 42-177 82-588 2-544 27-565-315-1070-701-1450-283-269 186 241-80 43-361-233 413-271 422 26 251 313-58-29-44-171 411 59 507 556 716 852 240 560 102 1198-13 1777 165 11-94 454-221 563-198 208-446 350-689 489zm885-2272c-72-236-147 187 0 0zm-241-305c38-161-326-655-153-272 28 52 191 533 153 272zm-118-526c-18 30 55 37 0 0zm19-272c-252-426 176 428 22 42zM3207 4940c-166-104-108-430-32-110-8-15 90 166 32 110zm3313-2088c-57-170-114-556-9-170 10 55 22 116 9 170zm-2155-345c-191-84-445-261-116-111 17 4 264 219 116 111zm-265-30c-256-103 148-7 0 0zm130-118c-134-81 116 11 0 0zM1741 3672c71-187 144-65 0 0zm872-2258c-33-36 127 5 0 0z"/>
  <path fill="#2c924d" fill-opacity=".5" d="M4513 7755c-452-43-914 60-1361-39a3513 3406-30 0 1-1558-695c-300-274-411-696-585-1057-268-546-629-1074-703-1670-52-455 41-935 216-1352 242-574 650-1084 1119-1493C2265 902 2990 340 3811 236c461-56 914 194 1344 363 429 169 897 318 1224 642 504 511 748 1230 983 1907 187 550 417 1142 326 1714-69 461-382 852-666 1221-261 336-593 617-933 869-458 329-922 722-1479 817-16 9-30-4-46-9zm1253-902c323-297 605-644 857-1009 257-381 605-759 669-1216 78-572-196-1141-385-1682-140-386-283-792-543-1106a2825 2825 0 0 0-929-722 3288 3188-30 0 0-1384-388c-389-4-778 120-1131 285-377 185-703 463-999 758-387 384-751 810-981 1304-145 320-243 675-233 1026 17 580 212 1158 484 1674 194 358 460 696 791 939 348 260 775 410 1198 503a3999 3877-30 0 0 2408-236c64-35 122-80 178-130zm-766-127c-398-19 141-97 97 1zm90-50c-189-17 267-4 0 0zm121-58c47-53 8 29 0 0zm-375 150c-194 25-323-73-55-24-8-2 122 34 55 24zm-188-79c-327-17 207-26 0 0zm-537-10c-316-124-679-181-923-404-334-194-300-400-446-710 312 260 464 707 867 877 135 121 704 241 586 265zm884-588c-198 68-776 47-745-11 14 26-730-327-218-364 315 84 658 105 955 105-369 160 588 103 75 241zm-630-207c-76-13-27 41 0 0zm1681-391c65-162 308-120 0 0zM3427 6883c-302-225-999-249-957-708 142 71 454 532 209 195-150-112-10-517 62-180 196 261 542 389 686 693zm1761-1138c-63-26 164-2 0 0zm881-479c29-150 341-326 109-92-32 30-58 85-109 92zm49-254c47-53 8 29 0 0zm37-34c44-58 6 24 0 0zM3758 6193c-60-61 98 54 0 0zm-144-36c-312-78 85-73 0 0zm2074-1173c98-342-183-109-474 56 140-150 422-343 518-295 105-124 24-19 309-309-436 727-227 231 56 91-99 161-175 263-409 457zM3339 6159c-152-64 53-42 0 0zm1745-1015c2-48 67-3 0 0zm-150-86c25-81-243 25 19-104 141-137 401-218 173 13l-66 56zM2447 6349c-26-73 47 62 0 0zm2020-1158c-299 22-565-189-750-109-17 83-333-335-351-533-54-139-12-496 100-531-77 190-37 289 17 44 9-353 707-545 614-78-25 248 192 405 354 270-95 260-466 213-464 306-166-231-303-63-178 130-146-168-266-224-102 29 116 380 731 381 906 386-42 36-93 70-146 86zm-226-72c-273-46 202 79 0 0zm-60-839c-117-77 72 68 0 0zm-764 234c-81-251 37 262 0 0zm195-240c-2-79-16 137 0 0zm47-66c-37-93 30 158 0 0zm109-206c-23-82-99 161 0 0zm1774 585c302-298-123 194 0 0zm-873 481c40-55 30 17 0 0zM2384 6195c-110-242 134 223 0 0zm1539-923c-214-165 166 77 0 0zm677-435c-162 148-827-73-313 9 453-5 924-361 969-828-107 326-33-264-117-37 57-494-255 474-346 369 182-314 234-677 160-1019-7-191-235-677-294-786 198 187 381 551 547 628-3 263 142 607 304 204 3 273 161 617-115 861-257 226-413 552-795 599zm667-671c3-95-57 152 0 0zm85 209c16-149 225-82 0 0zM2063 6189c-137-395-482-777-321-1220 92 171 5 10 126-49 97 296 55 587 150 904-17 97 106 325 45 365zm1428-950c-174-27-301-454-95-163 22 41 175 106 95 163zm-1196 650c-7-77 41 51 0 0zm125-75c-116-112-27-395 78-150-177-71 33 150-78 150zm963-825c-153-219 116 111 0 0zm-997 481c-85-222 118-37 3 19zm3563-2010c6-103 41 25 0 0zM3174 4908c-144-304 93 83 13 13zm2682-1504c-92-272 38-403 0 0zm154-124c-15-66-12-316-73-122 22-266-99-630 31-506 31-198-339-755-179-292-44-30-355-491-303-573 101 73 71 183-20 52 67 150 334 274 130 36-164-72-194-384-5-125 72 109 133 196 119 30 221 242 401 231 522 594 73 122 187 563 42 219-71-209-263-588-271-182 36 283 110 598 7 869zm-159-1188c-18-98 60 162 0 0zM2392 5098c-10-223 41 165 0 0zm-804 417c-229-144 151-666 64-202-19 30 2 260-64 202zm3718-2054c6-117 38-21 0 0zm293-213c57-239-124 128-130-137-285-375 533-216 261 46-101-173-88 209-131 91zm-1374 499c-120-311-661-111-718-140 182-199 781-203 718 140zm203-238c-226-213-521-502-868-327 172 88-814 296-282 40 314-211 892-190 1014 139 60 35 99 94 136 148zm-586-406c-157-35-143 31 0 0zM1583 4968c-12-47 33 49 0 0zm1381-844c64-304 253-695 598-721-294 173-475 425-592 744zm-788 434c-84-142 171-616 58-226-21 65 17 186-58 226zm-596 150c41-231 5-144-16-106 45-212 8-855 278-714 151-102 412-539 346-483-267 259 348-545-35-155-147 227-361 75-90-52 341-185 652-441 1033-528 350-56-433 182-489 346-87 95-484 485-347 471 351-272-253 426 38 19-26-100-176 391-284 510-521-159-280 541-434 692zm701-837c51-175 183-173 0 0zm1374-921c-295 66-192-292-9-56 22 2 197 108 9 56zM1562 4100c73-146-35 114 0 0zm3014-1684c-202-78-224-388-21-103l17 31zm-383 20c-329-109 18 84 65 18zM1759 3672c75-142-7 77 0 0zm3522-1995c-123-101 134 82 0 0zm-1420 759c-426 30-865 61-1282 133-66-186-427 245-570 377-169 172-684 626-579 603 182-354 492-650 747-956 314-225 720-291 1080-406 135 7 421 26 350-29 139 65-24 134 195 155 43 17 166 91 59 123zm-463 191c-73-21 202-23 0 0zm901-966c-266 58 134-160 0 0zm-274-59c-120-82-656-153-523-252 169-58 934 169 523 252zm-386 129c-319-14-758 3-996 126-517 180 511-103 374 105-316-49-838 315-978 223 186-309 650-293 769-572 43-151 706-75 361-49 128 71 398 72 470 167zm-203-298c-250-66 284 40 0 0z"/>
  <path fill="#1d7812" fill-opacity=".6" d="M4115 7518c-330-22-666 46-991-18a3567 3459-30 0 1-1434-582c-318-243-544-610-724-968-309-610-573-1278-585-1963-6-345 67-707 250-994C1335 1880 2395 774 3679 465c645-149 1363 118 1939 442a4023 3901-30 0 1 1504 1530c379 726 605 1616 445 2420-91 445-459 786-741 1147-257 328-526 662-861 911-396 289-836 562-1317 655-178 30-355-42-533-52zm1576-675c397-250 680-659 948-1045 262-384 562-788 622-1251 75-590-145-1202-372-1762-154-386-359-778-661-1069-333-322-783-514-1213-696-326-145-670-307-1031-311-379-10-756 122-1104 284-361 176-682 438-965 719-408 409-804 852-1028 1383a2479 2479 0 0 0-190 1130c28 461 212 904 423 1319 194 398 421 804 761 1089a3434 3329-30 0 0 2517 617c450-63 915-162 1293-407z"/>
  <path fill="#007800" d="M5323 454c416 143 889 501 1214 794 569 529 638 951 936 1667 87 201 153 570 192 783 57 284 80 773 54 1056-92 508-250 714-523 1153a3902 3902 0 0 1-990 1059c-485 343-894 665-1477 801-423 39-916 63-1327 5-442-62-836-197-1240-393-335-160-697-333-914-631-305-411-594-883-763-1362-157-457-281-933-258-1415 84-725 369-1418 823-2003 265-392 640-696 1015-974 476-346 996-689 1580-772 509-68 1191 61 1678 232zm528 6477c439-313 822-640 1074-1119 557-777 586-1256 525-1880-93-875-461-1990-1209-2540-306-324-531-510-947-680-332-128-979-236-1335-230-489 4-963 245-1390 491a4254 4254 0 0 0-1239 1095c-297 382-638 840-731 1320-91 459-135 856-47 1311 80 392 328 971 545 1309 245 390 515 694 909 936 754 511 1825 679 2731 462 352-77 822-263 1114-475z"/>
</svg>
