<?xml version="1.0" encoding="UTF-8" standalone="no"?>
<!-- Created with Inkscape (http://www.inkscape.org/) -->

<svg
   width="300.00018mm"
   height="449.99969mm"
   viewBox="0 0 300.00017 449.99969"
   version="1.1"
   id="svg5"
   inkscape:version="1.2.2 (732a01da63, 2022-12-09)"
   sodipodi:docname="logo_syrin.svg"
   inkscape:export-filename="logo_syrin.png"
   inkscape:export-xdpi="60.959999"
   inkscape:export-ydpi="60.959999"
   xmlns:inkscape="http://www.inkscape.org/namespaces/inkscape"
   xmlns:sodipodi="http://sodipodi.sourceforge.net/DTD/sodipodi-0.dtd"
   xmlns="http://www.w3.org/2000/svg"
   xmlns:svg="http://www.w3.org/2000/svg">
  <sodipodi:namedview
     id="namedview7"
     pagecolor="#505050"
     bordercolor="#ffffff"
     borderopacity="1"
     inkscape:showpageshadow="0"
     inkscape:pageopacity="0"
     inkscape:pagecheckerboard="1"
     inkscape:deskcolor="#505050"
     inkscape:document-units="mm"
     showgrid="false"
     inkscape:zoom="0.25000001"
     inkscape:cx="99.999996"
     inkscape:cy="939.99996"
     inkscape:window-width="1366"
     inkscape:window-height="705"
     inkscape:window-x="-8"
     inkscape:window-y="-8"
     inkscape:window-maximized="1"
     inkscape:current-layer="svg5" />
  <defs
     id="defs2" />
  <g
     id="g2239"
     transform="translate(-99.999999,-25)"
     style="stroke:none;stroke-opacity:1;stroke-width:4;stroke-dasharray:none">
    <ellipse
       style="display:inline;fill:#000000;fill-opacity:1;stroke:none;stroke-width:4;stroke-opacity:1;paint-order:markers fill stroke;stroke-dasharray:none"
       id="path6443"
       cx="-250"
       cy="250"
       transform="rotate(-90)"
       rx="101.58596"
       ry="90.003929" />
    <path
       id="ffd519ff_yellow"
       style="font-size:315.789px;line-height:1.25;font-family:OpenDyslexicMono;-inkscape-font-specification:OpenDyslexicMono;display:inline;fill:#ffd519;fill-opacity:1;stroke-width:4;stroke:none;stroke-opacity:1;stroke-dasharray:none"
       d="m 253.29684,474.99122 c 7.7643,-0.1774 16.017,-3.8629 23.0596,-10.8516 16.1341,-16.0105 19.5115,-36.4668 10.3358,-60.7895 -3.6265,-9.6131 -9.3854,-20.6055 -17.3385,-32.8032 -2.165,-3.3206 -4.4606,-6.7129 -6.9587,-10.2123 -3.7384,-5.2368 -7.8957,-10.6919 -12.3946,-16.3137 -9.5506,-11.9344 -20.7917,-24.6944 -33.8946,-38.2349 -12.1846,-12.5916 -24.3692,-25.1834 -36.5538,-37.775 -6.1188,-6.3231 -11.7807,-12.3236 -17.0052,-18.0128 -8.0681,8.7857 -15.077,16.8182 -21.0178,24.0817 11.4707,14.4314 25.3563,30.1769 41.8041,47.2163 4.6858,4.8541 11.4818,11.6235 20.1678,20.5134 10.1391,10.3771 19.1676,19.9432 27.1462,28.7368 7.3646,8.1169 13.8229,15.5666 19.3533,22.3278 21.3331,26.0808 29.06,42.0649 23.3309,47.7501 -1.5126,1.5009 -4.1598,0.6003 -8.0672,-2.5017 -3.6617,-2.9069 -6.8573,-4.4679 -9.0754,-5.0033 -2.03,-0.49 -3.9841,-0.7524 -5.8726,-0.7638 0.5626,0.014 1.1187,0.052 1.6692,0.1153 0.5505,0.063 1.0953,0.1512 1.634,0.2656 0.5387,0.1143 1.0716,0.2553 1.5989,0.4232 0.5272,0.1679 1.0487,0.3628 1.5647,0.5865 0.5161,0.2238 1.0266,0.4762 1.5317,0.7581 0.5051,0.2819 1.0047,0.5935 1.4992,0.9359 0.4944,0.3424 0.9835,0.7157 1.4676,1.1209 0.484,0.4051 0.9632,0.8422 1.4371,1.3125 0.6145,0.6098 1.1935,1.2253 1.7368,1.8459 0.5434,0.6207 1.0507,1.2466 1.5224,1.8764 0.4717,0.6298 0.9074,1.2639 1.3069,1.9012 0.3996,0.6372 0.7629,1.2778 1.0899,1.9208 0.3269,0.643 0.6174,1.2882 0.8712,1.9353 0.1269,0.3235 0.245,0.6473 0.3535,0.9715 0.1085,0.3242 0.2076,0.6489 0.2977,0.9736 0.09,0.3246 0.1712,0.6496 0.2428,0.9746 0.072,0.3249 0.1341,0.6496 0.1871,0.9746 0.053,0.325 0.097,0.6498 0.1313,0.9746 0.034,0.3248 0.059,0.6497 0.075,0.9741 0.016,0.3244 0.023,0.6487 0.02,0.9726 0,0.3238 -0.015,0.6474 -0.037,0.9704 -0.022,0.3231 -0.053,0.6454 -0.094,0.9674 -0.041,0.322 -0.09,0.6435 -0.1499,0.9643 -0.06,0.3208 -0.1286,0.6408 -0.2072,0.9602 -0.079,0.3193 -0.167,0.6378 -0.2646,0.9555 -0.098,0.3176 -0.2047,0.6345 -0.3214,0.9503 -0.1167,0.3158 -0.2429,0.6304 -0.3788,0.9441 -0.1359,0.3137 -0.2815,0.6266 -0.4367,0.9379 -0.1551,0.3114 -0.3196,0.6214 -0.494,0.9302 -0.1744,0.3089 -0.3586,0.6163 -0.5524,0.9224 -0.1938,0.3062 -0.3976,0.611 -0.6108,0.9142 -0.2132,0.3032 -0.4361,0.6048 -0.6687,0.9049 -0.2327,0.3 -0.4749,0.5983 -0.7271,0.895 -0.5045,0.5933 -1.048,1.1795 -1.6309,1.758 -0.4947,0.4909 -1.0033,0.9552 -1.5245,1.3927 -0.5212,0.4375 -1.0554,0.8482 -1.6009,1.2325 -0.5456,0.3843 -1.1024,0.7424 -1.6702,1.0738 -0.5678,0.3314 -1.1463,0.6364 -1.7343,0.9152 -0.5879,0.2788 -1.1856,0.5312 -1.7916,0.7576 -0.6059,0.2264 -1.2204,0.4267 -1.8423,0.601 -0.6218,0.1743 -1.251,0.3229 -1.8867,0.4454 -0.6355,0.1225 -1.2772,0.219 -1.9244,0.2899 1.0843,0.1185 2.1837,0.1649 3.2928,0.1396 z m -129.4959,-224.993 c 5.0599,-7.5513 10.9788,-15.59 17.7281,-24.0812 -21.4274,-26.1981 -29.0409,-42.4545 -22.9841,-48.4648 1.2604,-1.2508 3.6474,-0.6609 6.8068,1.7508 3.4027,2.5975 6.1141,4.3428 7.5628,5.0033 7.8889,3.5969 15.6298,2.5015 22.4364,-4.2529 9.0754,-9.0059 9.3277,-20.2632 0.5043,-29.0189 -10.84,-10.7571 -27.4787,-9.2558 -40.5877,3.7527 -16.638204,16.5108 -19.699704,37.6861 -9.0754,63.5413 3.8604,9.3946 9.7292,20.0103 17.6088,31.7697 z" />
    <path
       id="0000FF_blue"
       style="font-size:315.789px;line-height:1.25;font-family:OpenDyslexicMono;-inkscape-font-specification:OpenDyslexicMono;display:inline;fill:#0000ff;fill-opacity:1;stroke-width:4;stroke:none;stroke-opacity:1;stroke-dasharray:none"
       d="m 252.67156,25 c -0.8998,0.001 -1.792,0.052 -2.6747,0.1483 -5.179,0.5674 -10.0177,2.7808 -13.9754,6.7081 -9.3275,9.256102 -8.5713,20.513602 1.2604,30.270002 3.7915,3.7624 7.9022,5.4043 12.4023,5.5181 0.086,5e-4 0.1733,0 0.2595,0 0.139,0 0.2797,0 0.4196,0 1.874,-0.016 3.8127,-0.2779 5.826,-0.7638 2.2181,-0.5354 5.4137,-2.0959 9.0754,-5.0028 3.9074,-3.102 6.5546,-4.0027 8.0672,-2.5017 5.7291,5.6853 -1.9984,21.669297 -23.3319,47.750598 0.228,0.2788 0.4411,0.5467 0.6723,0.8279 1.0407,1.2656 2.113,2.5545 3.2169,3.8669 1.1038,1.3124 2.2394,2.6483 3.4065,4.0075 1.167,1.3592 2.3659,2.7417 3.5961,4.1476 2.4606,2.8118 5.0471,5.7172 7.7608,8.7157 0.2231,0.2466 0.4759,0.5149 0.7007,0.7627 7.9537,-12.1983 13.7129,-23.1912 17.3395,-32.804701 9.1758,-24.322797 5.7984,-44.779497 -10.3358,-60.790099 -7.232,-7.1766 -15.7405,-10.8703 -23.6854,-10.8587 z m -22.0249,104.4531 c -7.9785,8.7934 -17.0062,18.3593 -27.1452,28.7362 -8.686,8.8899 -15.482,15.6593 -20.1677,20.5135 -41.1968,42.6782 -66.5891,77.3878 -77.1416,103.0681 -10.624296,25.8553 -7.562896,47.031 9.0754,63.5419 13.109,13.0085 29.7477,14.5092 40.5877,3.7522 8.8234,-8.7558 8.5711,-20.013 -0.5043,-29.0189 -6.8066,-6.7544 -14.6644,-8.0923 -22.4364,-4.253 -1.3603,0.672 -4.16,2.4059 -7.5628,5.0033 -3.1594,2.4117 -5.5464,3.0022 -6.8068,1.7514 -8.8234,-8.7558 11.3579,-39.2523 61.0071,-90.5599 12.1846,-12.5916 24.3692,-25.1834 36.5538,-37.7749 13.1025,-13.5402 24.3436,-26.2998 33.8941,-38.2339 -0.9866,-1.2328 -1.998,-2.4777 -2.9476,-3.6923 -1.6905,-2.1621 -3.3225,-4.2953 -4.8969,-6.3991 -1.5744,-2.1037 -3.0908,-4.1781 -4.5501,-6.2223 -1.4593,-2.0442 -2.8617,-4.0584 -4.207,-6.042 -0.9576,-1.412 -1.8515,-2.7895 -2.7517,-4.1703 z" />
    <path
       id="0dff68_green"
       style="font-size:315.789px;line-height:1.25;font-family:OpenDyslexicMono;-inkscape-font-specification:OpenDyslexicMono;display:inline;fill:#0dff68;fill-opacity:1;stroke-width:4;stroke:none;stroke-opacity:1;stroke-dasharray:none"
       d="m 246.70274,25.006693 c -7.7643,0.1774 -16.017,3.8629 -23.0596,10.8516 -16.1341,16.010502 -19.5115,36.466802 -10.3358,60.789504 3.6265,9.613103 9.3854,20.605503 17.3385,32.803203 2.165,3.3206 4.4606,6.7129 6.9587,10.2123 3.7384,5.2368 7.8957,10.6919 12.3946,16.3137 9.5506,11.9344 20.7917,24.6944 33.8946,38.2349 12.1846,12.5916 24.3692,25.1834 36.5538,37.775 6.1188,6.3231 11.7807,12.3236 17.0052,18.0128 8.0681,-8.7857 15.077,-16.8182 21.0178,-24.0817 -11.4707,-14.4314 -25.3563,-30.1769 -41.8041,-47.2163 -4.6858,-4.8541 -11.4818,-11.6235 -20.1678,-20.5134 -10.1391,-10.3771 -19.1676,-19.9432 -27.1462,-28.7368 -7.3646,-8.1169 -13.8229,-15.5666 -19.3533,-22.3278 -21.3331,-26.080803 -29.06,-42.064905 -23.3309,-47.750105 1.5126,-1.5009 4.1598,-0.6003 8.0672,2.5017 3.6617,2.9069 6.8573,4.4679 9.0754,5.0033 2.03,0.49 3.9841,0.7524 5.8726,0.7638 -0.5626,-0.014 -1.1187,-0.052 -1.6692,-0.1153 -0.5505,-0.063 -1.0953,-0.1512 -1.634,-0.2656 -0.5387,-0.1143 -1.0716,-0.2553 -1.5989,-0.4232 -0.5272,-0.1679 -1.0487,-0.3628 -1.5647,-0.5865 -0.5161,-0.2238 -1.0266,-0.4762 -1.5317,-0.7581 -0.5051,-0.2819 -1.0047,-0.5935 -1.4992,-0.9359 -0.4944,-0.3424 -0.9835,-0.7157 -1.4676,-1.1209 -0.484,-0.4051 -0.9632,-0.8422 -1.4371,-1.3125 -0.6145,-0.6098 -1.1935,-1.2253 -1.7368,-1.8459 -0.5434,-0.6207 -1.0507,-1.2466 -1.5224,-1.8764 -0.4717,-0.6298 -0.9074,-1.2639 -1.3069,-1.9012 -0.3996,-0.6372 -0.7629,-1.2778 -1.0899,-1.9208 -0.3269,-0.643 -0.6174,-1.2882 -0.8712,-1.9353 -0.1269,-0.3235 -0.245,-0.6473 -0.3535,-0.9715 -0.1085,-0.3242 -0.2076,-0.6489 -0.2977,-0.9736 -0.09,-0.3246 -0.1712,-0.6496 -0.2428,-0.9746 -0.072,-0.3249 -0.1341,-0.6496 -0.1871,-0.9746 -0.053,-0.325 -0.097,-0.6498 -0.1313,-0.9746 -0.034,-0.3248 -0.059,-0.6497 -0.075,-0.9741 -0.016,-0.3244 -0.023,-0.6487 -0.02,-0.9726 0,-0.3238 0.015,-0.6474 0.037,-0.9704 0.022,-0.3231 0.053,-0.6454 0.094,-0.9674 0.041,-0.322 0.09,-0.6435 0.1499,-0.9643 0.06,-0.3208 0.1286,-0.6408 0.2072,-0.9602 0.079,-0.3193 0.167,-0.6378 0.2646,-0.9555 0.098,-0.3176 0.2047,-0.634502 0.3214,-0.950302 0.1167,-0.3158 0.2429,-0.6304 0.3788,-0.9441 0.1359,-0.3137 0.2815,-0.6266 0.4367,-0.9379 0.1551,-0.3114 0.3196,-0.6214 0.494,-0.9302 0.1744,-0.3089 0.3586,-0.6163 0.5524,-0.9224 0.1938,-0.3062 0.3976,-0.611 0.6108,-0.9142 0.2132,-0.3032 0.4361,-0.6048 0.6687,-0.9049 0.2327,-0.3 0.4749,-0.5983 0.7271,-0.895 0.5045,-0.5933 1.048,-1.1795 1.6309,-1.758 0.4947,-0.4909 1.0033,-0.9552 1.5245,-1.3927 0.5212,-0.4375 1.0554,-0.8482 1.6009,-1.2325 0.5456,-0.3843 1.1024,-0.7424 1.6702,-1.0738 0.5678,-0.3314 1.1463,-0.6364 1.7343,-0.9152 0.5879,-0.2788 1.1856,-0.5312 1.7916,-0.7576 0.6059,-0.2264 1.2204,-0.4267 1.8423,-0.601 0.6218,-0.1743 1.251,-0.3229 1.8867,-0.4454 0.6355,-0.1225 1.2772,-0.219 1.9244,-0.2899 -1.0843,-0.1185 -2.1837,-0.1649 -3.2928,-0.1396 z M 376.19862,249.9997 c -5.0599,7.5513 -10.97878,15.59 -17.72808,24.0812 21.42738,26.1981 29.04088,42.4545 22.98408,48.4648 -1.2604,1.2508 -3.6474,0.6609 -6.8068,-1.7508 -3.4027,-2.5975 -6.1141,-4.3428 -7.5628,-5.0033 -7.88888,-3.5969 -15.62978,-2.5015 -22.43638,4.2529 -9.0754,9.0059 -9.3277,20.2632 -0.5043,29.0189 10.84,10.7571 27.47868,9.2558 40.58768,-3.7527 16.6382,-16.5108 19.6997,-37.6861 9.0754,-63.5413 -3.8604,-9.3946 -9.7292,-20.0103 -17.6088,-31.7697 z" />
    <path
       id="0000FF-1_blue"
       style="font-size:315.789px;line-height:1.25;font-family:OpenDyslexicMono;-inkscape-font-specification:OpenDyslexicMono;display:inline;fill:#ff2519;fill-opacity:1;stroke-width:4;stroke:none;stroke-opacity:1;stroke-dasharray:none"
       d="m 247.32861,474.99968 c 0.8998,-0.001 1.792,-0.052 2.6747,-0.1483 5.179,-0.5674 10.0177,-2.7808 13.9754,-6.7081 9.32749,-9.2561 8.57129,-20.5136 -1.2604,-30.27 -3.7915,-3.7624 -7.9022,-5.4043 -12.4023,-5.5181 -0.086,-5e-4 -0.1733,0 -0.2595,0 -0.139,0 -0.2797,0 -0.4196,0 -1.874,0.016 -3.8127,0.2779 -5.826,0.7638 -2.2181,0.5354 -5.4137,2.0959 -9.0754,5.0028 -3.9074,3.102 -6.5546,4.0027 -8.0672,2.5017 -5.7291,-5.6853 1.9984,-21.6693 23.3319,-47.7506 -0.228,-0.2788 -0.4411,-0.5467 -0.6723,-0.8279 -1.0407,-1.2656 -2.113,-2.5545 -3.2169,-3.8669 -1.1038,-1.3124 -2.2394,-2.6483 -3.4065,-4.0075 -1.167,-1.3592 -2.3659,-2.7417 -3.5961,-4.1476 -2.4606,-2.8118 -5.0471,-5.7172 -7.7608,-8.7157 -0.2231,-0.2466 -0.4759,-0.5149 -0.7007,-0.7627 -7.9537,12.1983 -13.7129,23.1912 -17.3395,32.8047 -9.1758,24.3228 -5.7984,44.7795 10.3358,60.7901 7.232,7.1766 15.7405,10.8703 23.6854,10.8587 z m 22.02489,-104.4531 c 7.9785,-8.7934 17.0062,-18.3593 27.1452,-28.7362 8.686,-8.8899 15.482,-15.6593 20.1677,-20.5135 41.19683,-42.6782 66.58913,-77.3878 77.14163,-103.0681 10.6243,-25.8553 7.5629,-47.031 -9.0754,-63.5419 -13.109,-13.0085 -29.7477,-14.5092 -40.58773,-3.7522 -8.8234,8.7558 -8.5711,20.013 0.5043,29.0189 6.80663,6.7544 14.66443,8.0923 22.43643,4.253 1.3603,-0.672 4.16,-2.4059 7.5628,-5.0033 3.1594,-2.4117 5.5464,-3.0022 6.8068,-1.7514 8.8234,8.7558 -11.3579,39.2523 -61.00713,90.5599 -12.1846,12.5916 -24.3692,25.1834 -36.5538,37.7749 -13.1025,13.5402 -24.34359,26.2998 -33.89409,38.2339 0.9866,1.2328 1.998,2.4777 2.9476,3.6923 1.6905,2.1621 3.3225,4.2953 4.8969,6.3991 1.5744,2.1037 3.0908,4.1781 4.5501,6.2223 1.4593,2.0442 2.86169,4.0584 4.20699,6.042 0.9576,1.412 1.8515,2.7895 2.7517,4.1703 z" />
  </g>
</svg>
